<?xml version="1.0" encoding="UTF-8" standalone="no"?>
<!DOCTYPE svg PUBLIC "-//W3C//DTD SVG 1.1//EN" "http://www.w3.org/Graphics/SVG/1.1/DTD/svg11.dtd">
<svg width="100%" height="100%" viewBox="0 0 500 170" version="1.1" xmlns="http://www.w3.org/2000/svg" xmlns:xlink="http://www.w3.org/1999/xlink" xml:space="preserve" xmlns:serif="http://www.serif.com/" style="fill-rule:evenodd;clip-rule:evenodd;stroke-linejoin:round;stroke-miterlimit:2;">
    <g id="_x34_" transform="matrix(1,0,0,1,-250.4,-415.1)">
        <g>
            <g>
                <g>
                    <path d="M375.8,438.7L375.8,441.4L375.1,441.9L369.2,446.5L368.7,446.9L305,446.9C301.1,446.9 299.9,448 299.9,451.4L299.9,461.3C299.9,465.8 298.3,468.9 295,470.8C298.3,472.8 299.9,475.9 299.9,480.3L299.9,491.4C299.9,494.9 301.1,495.9 305,495.9L333.6,495.9L325.5,504L305,504C294.3,504 289.2,499.9 289.2,491.3L289.2,480.2C289.2,476.4 286.6,472.4 282.3,472.4L282.3,469C284.7,469 286.3,467.8 287.2,466.8C288.5,465.3 289.2,463.4 289.2,461.3L289.2,451.4C289.2,442.9 294.4,438.7 305,438.7L375.8,438.7Z" style="fill:rgb(255,31,48);fill-rule:nonzero;"/>
                </g>
                <g>
                    <path d="M382.6,526.2L382.6,529.7C380.2,529.7 378.6,530.9 377.7,532C376.4,533.5 375.7,535.5 375.7,537.5L375.7,548.6C375.7,557.1 370.5,561.3 359.9,561.3L289.1,561.3L289.1,558.6L289.8,558.1L295.7,553.5L296.2,553.1L359.9,553.1C363.8,553.1 365,552 365,548.6L365,537.5C365,533.1 366.7,530 369.9,528C366.6,526.1 365,523 365,518.5L365,508.6C365,505.1 363.8,504.1 359.9,504.1L331.3,504.1L339.4,496L359.9,496C370.6,496 375.7,500.1 375.7,508.7L375.7,518.6C375.8,522.8 378.8,526.2 382.6,526.2Z" style="fill:rgb(255,31,48);fill-rule:nonzero;"/>
                </g>
            </g>
            <g>
                <g>
                    <path d="M382.6,585L282.3,585C281.7,585 281.2,584.8 280.8,584.4L251,554.6C250.6,554.2 250.4,553.6 250.4,553.1L250.4,446.9C250.4,446.3 250.6,445.8 251,445.4L280.8,415.7C281.2,415.3 281.8,415.1 282.3,415.1L382.7,415.1C383.3,415.1 383.8,415.3 384.2,415.7L414,445.4C414.4,445.8 414.6,446.4 414.6,446.9L414.6,553.1C414.6,553.7 414.4,554.2 414,554.6L384.2,584.3C383.8,584.8 383.2,585 382.6,585ZM283.2,580.7L381.8,580.7L410.3,552.2L410.3,447.8L381.8,419.3L283.2,419.3L254.7,447.8L254.7,552.2L283.2,580.7Z" style="fill:rgb(234,0,28);fill-rule:nonzero;"/>
                </g>
            </g>
        </g>
        <g>
            <g>
                <g>
                    <path d="M500.7,470.7C499.3,469.7 495.6,467.9 486.7,466.9C481.2,466.3 479.2,465.8 478.1,465.4C472.5,463.6 472,459.3 472,458C472,456.1 472.8,450.1 482.8,450.1C486.1,450.1 488.9,450.9 491.1,452.4L498.2,452.4C497.9,452.2 497.6,451.9 497.3,451.7C493.8,449.3 489,448 483,448C476.9,448 472.2,449.1 468.8,451.4C465.3,453.7 464.9,456.2 464.9,458C464.9,460 464.9,465.4 480,467.1C486.2,467.8 488.5,468.4 489.8,468.8C495.6,470.8 496,475.2 496,476.5C496,481.8 491.7,484.5 483.2,484.5C478.8,484.5 475.5,483.6 473,481.8L465.5,481.8C466,482.2 466.6,482.7 467.3,483.2C470.7,485.5 475.9,486.6 482.7,486.6C489.6,486.6 495,485.4 498.9,483C502.8,480.6 503.3,478.3 503.3,476.5C503.2,473 501.8,471.5 500.7,470.7Z" style="fill:rgb(234,0,28);fill-rule:nonzero;"/>
                </g>
                <g>
                    <path d="M533.2,468L559.2,468L559.2,466.7L533.2,466.7L533.2,450.2L563.1,450.2L563.1,448.2L526.5,448.2L526.5,486.6L563.9,486.6L563.9,484.5L533.2,484.5L533.2,468Z" style="fill:rgb(234,0,28);fill-rule:nonzero;"/>
                </g>
                <g>
                    <path d="M623.5,451.5C620.8,449.3 616.8,448.2 611.7,448.2L587.7,448.2L587.7,486.6L595.1,486.6L595.1,470.5L611,470.5L618.1,486.6L625.4,486.6L617.3,471.5L622.3,468.6C624.4,467.4 626.9,465.2 626.9,459.6C627.1,456 625.9,453.5 623.5,451.5ZM617.2,466C615.5,468.1 613,469.2 610.1,469.2L595.1,469.2L595.1,449.6L610.1,449.6C613.2,449.6 615.8,450.9 617.5,453.4C618.7,455.2 619.4,457.3 619.4,459.6C619.5,462 618.7,464.2 617.2,466Z" style="fill:rgb(234,0,28);fill-rule:nonzero;"/>
                </g>
                <g>
                    <path d="M668.9,486.6L673.6,486.6L687.4,448.2L680.4,448.2L668.9,486.6Z" style="fill:rgb(234,0,28);fill-rule:nonzero;"/>
                </g>
                <g>
                    <path d="M646.6,448.2L660.5,486.6L665.1,486.6L653.5,448.2L646.6,448.2Z" style="fill:rgb(234,0,28);fill-rule:nonzero;"/>
                </g>
                <g>
                    <path d="M732,448.2L741.9,477L714.9,477L724.8,448.2L720.3,448.2L707.2,486.6L712.7,486.6L715.4,479.1L741.4,479.1L744.1,486.6L749.6,486.6L736.5,448.2L732,448.2Z" style="fill:rgb(234,0,28);fill-rule:nonzero;"/>
                </g>
            </g>
            <g>
                <g>
                    <path d="M497,521L504.7,521C504.1,520.1 503.2,519 501.9,517.9C500.4,516.7 498.3,515.6 495.6,514.7C492.7,513.8 489.3,513.3 485.6,513.3C476.7,513.3 470.7,515.5 467.3,520C465.7,522.2 464.8,525 464.8,528.4L464.8,536.7C464.8,540.1 465.6,542.9 467.3,545.1C469.1,547.4 471.3,549.1 474.1,550.1C477.3,551.3 481,551.9 485,551.9C489.1,551.9 492.7,551.4 495.6,550.5C498.3,549.6 500.5,548.6 501.9,547.3C503.2,546.2 504,545.2 504.7,544.3L497,544.3C496,545.8 494.8,547 493.4,547.9C491.4,549.2 488.8,549.9 485.4,549.9C481.9,549.9 479,549 476.6,547.2C473.8,545.1 472.2,541.9 472.2,538.1L472.2,527.2C472.2,523.5 473.7,520.3 476.6,518.1C479,516.3 481.9,515.4 485.4,515.4C488.8,515.4 491.4,516 493.3,517.3C494.8,518.3 496,519.5 497,521Z" style="fill:rgb(234,0,28);fill-rule:nonzero;"/>
                </g>
                <g>
                    <path d="M525.3,516.9L542.7,516.9L542.7,551.8L549.5,551.8L549.5,516.9L566.9,516.9L566.9,513.4L525.3,513.4L525.3,516.9Z" style="fill:rgb(234,0,28);fill-rule:nonzero;"/>
                </g>
                <g>
                    <path d="M623.2,517.5C619.3,514.7 613.9,513.3 607.3,513.3C600.7,513.3 595.3,514.7 591.4,517.5C589.3,519 586.5,521.7 586.5,528.5L586.5,536.8C586.5,540.4 587.3,543.2 588.9,545.4C590.6,547.7 592.7,549.2 595.5,550.2C598.7,551.3 602.7,551.9 607.3,551.9C611.9,551.9 615.8,551.3 619.1,550.2C621.9,549.2 624,547.7 625.7,545.4C627.3,543.2 628.1,540.4 628.1,536.9L628.1,528.3C628.1,523.3 626.5,519.9 623.2,517.5ZM620.6,538C620.6,541.7 619.1,544.9 616.3,547.1C613.9,548.9 610.9,549.9 607.3,549.9C603.7,549.9 600.7,549 598.3,547.2C595.5,545.1 593.9,541.9 593.9,538.1L593.9,527.2C593.9,523.5 595.4,520.3 598.3,518.1C600.7,516.3 603.7,515.4 607.3,515.4C610.9,515.4 613.9,516.3 616.3,518.2C619.1,520.3 620.6,523.6 620.6,527.3L620.6,538Z" style="fill:rgb(234,0,28);fill-rule:nonzero;"/>
                </g>
                <g>
                    <path d="M685.2,533.9C687.3,532.7 689.8,530.5 689.8,524.9C689.8,521.3 688.7,518.8 686.3,516.8C683.6,514.6 679.6,513.5 674.5,513.5L650.5,513.5L650.5,551.9L657.9,551.9L657.9,535.8L673.8,535.8L680.9,551.9L688.2,551.9L680.1,536.8L685.2,533.9ZM672.9,534.5L657.9,534.5L657.9,514.9L672.9,514.9C676,514.9 678.6,516.2 680.3,518.7C681.6,520.5 682.2,522.6 682.2,524.9C682.2,527.3 681.4,529.6 680,531.3C678.2,533.3 675.7,534.5 672.9,534.5Z" style="fill:rgb(234,0,28);fill-rule:nonzero;"/>
                </g>
                <g>
                    <path d="M729.5,535.3L717.1,513.4L711.2,513.4L726,538.2L726,551.8L733.3,551.8L733.3,538.2L748.2,513.4L742.5,513.4L729.5,535.3Z" style="fill:rgb(234,0,28);fill-rule:nonzero;"/>
                </g>
            </g>
        </g>
    </g>
</svg>
