<?xml version="1.0" encoding="UTF-8" standalone="no"?>
<!DOCTYPE svg PUBLIC "-//W3C//DTD SVG 1.1//EN" "http://www.w3.org/Graphics/SVG/1.1/DTD/svg11.dtd">
<svg width="100%" height="100%" viewBox="0 0 468 484" version="1.1" xmlns="http://www.w3.org/2000/svg" xmlns:xlink="http://www.w3.org/1999/xlink" xml:space="preserve" xmlns:serif="http://www.serif.com/" style="fill-rule:evenodd;clip-rule:evenodd;stroke-linejoin:round;stroke-miterlimit:2;">
    <g id="_x31_" transform="matrix(1,0,0,1,-266.4,-258.2)">
        <g>
            <path d="M623.2,325.8L623.2,333.5L621.3,335L603.1,349L421.9,349C410.7,349 407.3,352 407.3,361.9L407.3,390C407.3,402.7 402.7,411.6 393.3,417C402.6,422.6 407.3,431.6 407.3,444L407.3,475.7C407.3,485.6 410.7,488.6 421.9,488.6L503.3,488.6L480.1,511.8L421.8,511.8C391.5,511.8 376.8,500 376.8,475.8L376.8,444.1C376.8,433.2 369.5,421.9 357.2,421.9L357.2,412C364.1,412 368.6,408.5 371.1,405.6C374.7,401.5 376.7,395.9 376.7,390L376.7,361.9C376.7,337.6 391.4,325.9 421.7,325.9L623.2,325.9L623.2,325.8Z" style="fill:rgb(255,31,48);fill-rule:nonzero;"/>
            <path d="M642.7,574.5L642.7,584.4C635.9,584.4 631.4,587.9 628.8,590.9C625.2,595 623.2,600.8 623.2,606.6L623.2,638.2C623.2,662.5 608.5,674.2 578.2,674.2L376.8,674.2L376.8,666.5L378.7,665L396.9,651L578,651C589.2,651 592.6,648 592.6,638.1L592.6,606.5C592.6,594.1 597.3,585.1 606.6,579.5C597.2,574.1 592.6,565.1 592.6,552.5L592.6,524.5C592.6,514.6 589.2,511.6 578,511.6L496.5,511.6L519.7,488.4L578,488.4C608.3,488.4 623,500.2 623,524.4L623,552.4C623.2,564.8 631.8,574.5 642.7,574.5Z" style="fill:rgb(255,31,48);fill-rule:nonzero;"/>
        </g>
        <g>
            <path d="M642.7,741.8L357.3,741.8C355.7,741.8 354.1,741.1 352.9,740L268.2,655.4C267,654.2 266.4,652.7 266.4,651L266.4,349C266.4,347.4 267.1,345.8 268.2,344.6L352.9,260C354.1,258.8 355.6,258.2 357.3,258.2L642.7,258.2C644.3,258.2 645.9,258.9 647.1,260L731.8,344.6C733,345.8 733.6,347.3 733.6,349L733.6,651.1C733.6,652.7 732.9,654.3 731.8,655.5L647.1,740C645.9,741.2 644.4,741.8 642.7,741.8ZM359.8,729.5L640.1,729.5L721.1,648.5L721.1,351.5L640.1,270.5L359.8,270.5L278.8,351.5L278.8,648.5L359.8,729.5Z" style="fill:rgb(234,0,28);fill-rule:nonzero;"/>
        </g>
    </g>
</svg>
