<?xml version="1.0" encoding="UTF-8" standalone="no"?>
<!DOCTYPE svg PUBLIC "-//W3C//DTD SVG 1.1//EN" "http://www.w3.org/Graphics/SVG/1.1/DTD/svg11.dtd">
<svg width="100%" height="100%" viewBox="0 0 1947 2016" version="1.1" xmlns="http://www.w3.org/2000/svg" xmlns:xlink="http://www.w3.org/1999/xlink" xml:space="preserve" xmlns:serif="http://www.serif.com/" style="fill-rule:evenodd;clip-rule:evenodd;stroke-linejoin:round;stroke-miterlimit:2;">
    <g transform="matrix(4.16667,0,0,4.16667,-1110.09,-1075.72)">
        <path d="M623.173,325.769L623.173,333.49L621.226,334.976L604.313,347.928L602.993,348.95L421.873,348.95C410.686,348.95 407.271,351.953 407.271,361.804L407.271,389.871C407.271,402.56 402.667,411.485 393.245,416.897C402.568,422.458 407.271,431.5 407.271,443.892L407.271,475.555C407.271,485.422 410.686,488.425 421.873,488.425L503.316,488.425L480.151,511.591L421.873,511.591C391.563,511.591 376.828,499.811 376.828,475.555L376.828,443.892C376.828,433.002 369.518,421.732 357.275,421.732L357.275,411.832C364.156,411.832 368.644,408.367 371.185,405.463C374.832,401.321 376.828,395.777 376.828,389.871L376.828,361.804C376.828,337.549 391.563,325.769 421.873,325.769L623.173,325.769Z" style="fill:rgb(241,213,167);fill-rule:nonzero;"/>
        <path d="M642.726,574.489L642.726,584.389C635.878,584.389 631.39,587.903 628.815,590.841C625.235,594.966 623.173,600.691 623.173,606.549L623.173,638.195C623.173,662.45 608.438,674.231 578.128,674.231L376.828,674.231L376.828,666.526L378.775,665.041L395.688,652.089L397.007,651.065L578.128,651.065C589.314,651.065 592.73,648.063 592.73,638.195L592.73,606.549C592.73,594.141 597.433,585.115 606.739,579.555C597.334,574.143 592.73,565.199 592.73,552.511L592.73,524.461C592.73,514.594 589.314,511.591 578.128,511.591L496.651,511.591L519.815,488.425L578.128,488.425C608.438,488.425 623.173,500.206 623.173,524.461L623.173,552.511C623.173,564.837 631.77,574.489 642.726,574.489Z" style="fill:rgb(241,213,167);fill-rule:nonzero;"/>
        <path d="M727.391,651.065L727.406,651.065L727.391,651.065ZM359.836,729.453L640.165,729.453L721.203,648.5L721.203,351.515L640.163,270.547L359.836,270.547L278.797,351.515L278.797,648.5L359.836,729.453ZM642.725,741.828L357.275,741.828C355.635,741.828 354.062,741.178 352.902,740.019L268.236,655.443C267.074,654.282 266.422,652.708 266.422,651.065L266.422,348.95C266.422,347.309 267.074,345.734 268.236,344.573L352.902,259.981C354.062,258.822 355.635,258.172 357.275,258.172L642.725,258.172C644.365,258.172 645.938,258.822 647.098,259.981L731.764,344.573C732.926,345.734 733.578,347.309 733.578,348.95L733.578,651.065C733.578,652.708 732.926,654.282 731.764,655.443L647.098,740.019C645.938,741.178 644.365,741.828 642.725,741.828Z" style="fill:rgb(241,213,167);fill-rule:nonzero;"/>
    </g>
</svg>
