<?xml version="1.0" encoding="UTF-8" standalone="no"?>
<!DOCTYPE svg PUBLIC "-//W3C//DTD SVG 1.1//EN" "http://www.w3.org/Graphics/SVG/1.1/DTD/svg11.dtd">
<svg width="100%" height="100%" viewBox="0 0 16 16" version="1.1" xmlns="http://www.w3.org/2000/svg" xmlns:xlink="http://www.w3.org/1999/xlink" xml:space="preserve" xmlns:serif="http://www.serif.com/" style="fill-rule:evenodd;clip-rule:evenodd;stroke-linejoin:round;stroke-miterlimit:2;">
    <path d="M14,1C14.549,1 15,1.451 15,2L15,14C15,14.549 14.549,15 14,15L2,15C1.451,15 1,14.549 1,14L1,2C1,1.451 1.451,1 2,1L14,1ZM2,0C0.903,0 -0,0.903 0,2L0,14C0,15.097 0.903,16 2,16L14,16C15.097,16 16,15.097 16,14L16,2C16,0.903 15.097,0 14,0L2,0Z" style="fill:rgb(235,235,239);fill-rule:nonzero;"/>
    <path d="M6.854,4.646C6.948,4.74 7.001,4.867 7.001,5C7.001,5.133 6.948,5.26 6.854,5.354L4.207,8L6.854,10.646C6.948,10.74 7.001,10.867 7.001,11C7.001,11.275 6.775,11.501 6.5,11.501C6.367,11.501 6.24,11.448 6.146,11.354L3.146,8.354C3.052,8.26 2.999,8.133 2.999,8C2.999,7.867 3.052,7.74 3.146,7.646L6.146,4.646C6.24,4.552 6.367,4.499 6.5,4.499C6.633,4.499 6.76,4.552 6.854,4.646ZM9.146,4.646C9.052,4.74 8.999,4.867 8.999,5C8.999,5.133 9.052,5.26 9.146,5.354L11.793,8L9.146,10.646C9.052,10.74 8.999,10.867 8.999,11C8.999,11.275 9.225,11.501 9.5,11.501C9.633,11.501 9.76,11.448 9.854,11.354L12.854,8.354C12.948,8.26 13.001,8.133 13.001,8C13.001,7.867 12.948,7.74 12.854,7.646L9.854,4.646C9.76,4.552 9.633,4.499 9.5,4.499C9.367,4.499 9.24,4.552 9.146,4.646Z" style="fill:rgb(235,235,239);fill-rule:nonzero;"/>
</svg>
