<?xml version="1.0" encoding="UTF-8" standalone="no"?>
<!DOCTYPE svg PUBLIC "-//W3C//DTD SVG 1.1//EN" "http://www.w3.org/Graphics/SVG/1.1/DTD/svg11.dtd">
<svg width="100%" height="100%" viewBox="0 0 16 16" version="1.1" xmlns="http://www.w3.org/2000/svg" xmlns:xlink="http://www.w3.org/1999/xlink" xml:space="preserve" xmlns:serif="http://www.serif.com/" style="fill-rule:evenodd;clip-rule:evenodd;stroke-linejoin:round;stroke-miterlimit:2;">
    <path d="M12.5,16C14.42,16 16,14.42 16,12.5C16,10.58 14.42,9 12.5,9C10.58,9 9,10.58 9,12.5C9,14.42 10.58,16 12.5,16ZM13,11L13,12L14,12C14.274,12 14.5,12.226 14.5,12.5C14.5,12.774 14.274,13 14,13L13,13L13,14C13,14.274 12.774,14.5 12.5,14.5C12.226,14.5 12,14.274 12,14L12,13L11,13C10.726,13 10.5,12.774 10.5,12.5C10.5,12.226 10.726,12 11,12L12,12L12,11C12,10.726 12.226,10.5 12.5,10.5C12.774,10.5 13,10.726 13,11Z" style="fill:rgb(50,54,63);fill-rule:nonzero;"/>
    <path d="M12.096,6.223C12.415,6.081 12.718,5.905 13,5.698L13,7C13,7.289 12.787,7.654 12.247,8.007C12.842,7.973 13.438,8.058 14,8.257L14,4C14,2.993 13.125,2.245 12.096,1.777C11.022,1.289 9.573,1 8,1C6.427,1 4.978,1.289 3.904,1.777C2.875,2.245 2,2.993 2,4L2,13C2,14.007 2.875,14.755 3.904,15.223C4.978,15.71 6.427,16 8,16C8.536,16 9.058,15.966 9.555,15.903C9.243,15.633 8.969,15.321 8.742,14.976C8.5,14.992 8.252,15 8,15C6.536,15 5.234,14.73 4.318,14.313C3.356,13.875 3,13.373 3,13L3,11.698C3.271,11.9 3.58,12.076 3.904,12.223C4.978,12.71 6.427,13 8,13L8.027,13C7.99,12.668 7.99,12.332 8.027,12L8,12C6.536,12 5.234,11.73 4.318,11.313C3.356,10.875 3,10.373 3,10L3,8.698C3.271,8.9 3.58,9.076 3.904,9.223C4.978,9.71 6.427,10 8,10C8.262,10 8.52,9.992 8.774,9.976C9.072,9.537 9.445,9.154 9.876,8.844C9.298,8.944 8.666,9 8,9C6.536,9 5.234,8.73 4.318,8.313C3.356,7.875 3,7.373 3,7L3,5.698C3.271,5.9 3.58,6.076 3.904,6.223C4.978,6.711 6.427,7 8,7C9.573,7 11.022,6.711 12.096,6.223ZM3,4C3,3.626 3.356,3.125 4.318,2.687C5.234,2.271 6.536,2 8,2C9.464,2 10.766,2.27 11.682,2.687C12.644,3.125 13,3.627 13,4C13,4.374 12.644,4.875 11.682,5.313C10.766,5.729 9.464,6 8,6C6.536,6 5.234,5.73 4.318,5.313C3.356,4.875 3,4.373 3,4Z" style="fill:rgb(50,54,63);fill-rule:nonzero;"/>
</svg>
