<?xml version="1.0" encoding="UTF-8" standalone="no"?>
<!DOCTYPE svg PUBLIC "-//W3C//DTD SVG 1.1//EN" "http://www.w3.org/Graphics/SVG/1.1/DTD/svg11.dtd">
<svg width="100%" height="100%" viewBox="0 0 16 16" version="1.1" xmlns="http://www.w3.org/2000/svg" xmlns:xlink="http://www.w3.org/1999/xlink" xml:space="preserve" xmlns:serif="http://www.serif.com/" style="fill-rule:evenodd;clip-rule:evenodd;stroke-linejoin:round;stroke-miterlimit:2;">
    <path d="M12.096,6.223C12.415,6.08 12.718,5.904 13,5.698L13,7C13,7.289 12.787,7.654 12.247,8.007C12.842,7.973 13.438,8.058 14,8.257L14,4C14,2.993 13.125,2.245 12.096,1.777C11.022,1.289 9.573,1 8,1C6.427,1 4.978,1.289 3.904,1.777C2.875,2.245 2,2.993 2,4L2,13C2,14.007 2.875,14.755 3.904,15.223C4.978,15.71 6.427,16 8,16C8.536,16 9.058,15.966 9.555,15.903C9.243,15.633 8.969,15.321 8.742,14.976C8.499,14.992 8.252,15 8,15C6.536,15 5.234,14.73 4.318,14.313C3.356,13.875 3,13.373 3,13L3,11.698C3.271,11.9 3.58,12.076 3.904,12.223C4.978,12.71 6.427,13 8,13L8.027,13C7.991,12.668 7.991,12.332 8.027,12L8,12C6.536,12 5.234,11.73 4.318,11.313C3.356,10.875 3,10.373 3,10L3,8.698C3.271,8.9 3.58,9.076 3.904,9.223C4.978,9.71 6.427,10 8,10C8.262,10 8.52,9.992 8.774,9.976C9.072,9.537 9.445,9.153 9.876,8.844C9.298,8.944 8.666,9 8,9C6.536,9 5.234,8.73 4.318,8.313C3.356,7.875 3,7.373 3,7L3,5.698C3.271,5.9 3.58,6.076 3.904,6.223C4.978,6.711 6.427,7 8,7C9.573,7 11.022,6.711 12.096,6.223M3,4C3,3.626 3.356,3.125 4.318,2.687C5.234,2.271 6.536,2 8,2C9.464,2 10.766,2.27 11.682,2.687C12.644,3.125 13,3.627 13,4C13,4.374 12.644,4.875 11.682,5.313C10.766,5.729 9.464,6 8,6C6.536,6 5.234,5.73 4.318,5.313C3.356,4.875 3,4.373 3,4" style="fill:rgb(50,54,63);fill-rule:nonzero;"/>
    <path d="M11.886,9.46C12.066,8.847 12.934,8.847 13.115,9.46L13.158,9.608C13.238,9.88 13.489,10.068 13.772,10.068C13.879,10.068 13.985,10.041 14.079,9.99L14.215,9.916C14.776,9.61 15.39,10.224 15.085,10.785L15.01,10.921C14.959,11.015 14.932,11.12 14.932,11.227C14.932,11.51 15.12,11.761 15.392,11.841L15.541,11.886C16.153,12.066 16.153,12.934 15.541,13.115L15.391,13.158C15.12,13.238 14.932,13.489 14.932,13.772C14.932,13.879 14.959,13.985 15.011,14.079L15.085,14.215C15.39,14.776 14.776,15.39 14.215,15.085L14.079,15.01C13.985,14.959 13.88,14.932 13.773,14.932C13.49,14.932 13.239,15.12 13.159,15.392L13.114,15.541C12.934,16.153 12.066,16.153 11.885,15.541L11.842,15.391C11.762,15.12 11.511,14.932 11.228,14.932C11.121,14.932 11.015,14.959 10.921,15.011L10.785,15.085C10.224,15.39 9.61,14.776 9.915,14.215L9.99,14.079C10.041,13.985 10.068,13.88 10.068,13.773C10.068,13.49 9.88,13.239 9.608,13.159L9.46,13.114C8.847,12.934 8.847,12.066 9.46,11.885L9.608,11.842C9.88,11.762 10.068,11.511 10.068,11.228C10.068,11.121 10.041,11.015 9.99,10.921L9.916,10.785C9.61,10.224 10.224,9.61 10.785,9.915L10.921,9.99C11.015,10.041 11.12,10.068 11.227,10.068C11.51,10.068 11.761,9.88 11.841,9.608L11.886,9.46ZM14,12.5C14,13.323 13.323,14 12.5,14C11.677,14 11,13.323 11,12.5C11,11.677 11.677,11 12.5,11C13.323,11 14,11.677 14,12.5" style="fill:rgb(50,54,63);fill-rule:nonzero;"/>
</svg>
