<?xml version="1.0" encoding="UTF-8" standalone="no"?>
<!DOCTYPE svg PUBLIC "-//W3C//DTD SVG 1.1//EN" "http://www.w3.org/Graphics/SVG/1.1/DTD/svg11.dtd">
<svg width="100%" height="100%" viewBox="0 0 16 16" version="1.1" xmlns="http://www.w3.org/2000/svg" xmlns:xlink="http://www.w3.org/1999/xlink" xml:space="preserve" xmlns:serif="http://www.serif.com/" style="fill-rule:evenodd;clip-rule:evenodd;stroke-linejoin:round;stroke-miterlimit:2;">
    <path d="M1,8C1,4.16 4.16,1.001 8,1.001C11.84,1.001 15,4.161 15,8.001C15,11.841 11.84,15.001 8,15.001C6.527,15.001 5.091,14.536 3.898,13.673C3.731,13.552 3.682,13.267 3.896,13.053L5.696,11.253C7.083,12.291 9.043,12.15 10.268,10.925L11.682,9.51C11.876,9.316 11.876,8.997 11.682,8.803L10.975,8.096L12.534,6.533C12.631,6.439 12.686,6.309 12.686,6.174C12.686,5.9 12.46,5.674 12.186,5.674C12.05,5.674 11.92,5.729 11.826,5.827L10.267,7.389L8.853,5.975L10.413,4.413C10.516,4.318 10.574,4.185 10.574,4.045C10.574,3.771 10.348,3.545 10.074,3.545C9.934,3.545 9.801,3.604 9.706,3.707L8.146,5.267L7.439,4.561C7.245,4.367 6.926,4.367 6.732,4.561L5.318,5.975C4.093,7.2 3.953,9.159 4.99,10.546L3.19,12.346C2.61,12.926 2.57,13.946 3.311,14.483C4.675,15.47 6.316,16.001 8,16.001C12.389,16.001 16,12.39 16,8.001C16,3.613 12.389,0.001 8,0.001C3.612,0.001 0.001,3.612 0,8C0,8.274 0.226,8.5 0.5,8.5C0.774,8.5 1,8.274 1,8Z" style="fill:rgb(235,235,239);"/>
</svg>
