<?xml version="1.0" encoding="UTF-8" standalone="no"?>
<!DOCTYPE svg PUBLIC "-//W3C//DTD SVG 1.1//EN" "http://www.w3.org/Graphics/SVG/1.1/DTD/svg11.dtd">
<svg width="100%" height="100%" viewBox="0 0 16 16" version="1.1" xmlns="http://www.w3.org/2000/svg" xmlns:xlink="http://www.w3.org/1999/xlink" xml:space="preserve" xmlns:serif="http://www.serif.com/" style="fill-rule:evenodd;clip-rule:evenodd;stroke-linejoin:round;stroke-miterlimit:2;">
    <path d="M1,0L0,1L2.2,4.081C2.388,4.344 2.692,4.5 3.015,4.5L3.085,4.5C3.35,4.5 3.605,4.605 3.793,4.793L6.468,7.468L3.851,10.122C3.576,10.041 3.29,10 3.003,10C1.357,10 0.002,11.354 0,13C0.002,14.644 1.356,15.996 3,15.996C4.646,15.996 6,14.642 6,12.996C6,12.709 5.959,12.424 5.878,12.149L8.532,9.532L9.5,10.5L9.195,11.414C9.076,11.773 9.17,12.17 9.437,12.437L12.707,15.707C12.894,15.895 13.149,16.001 13.414,16.001C13.679,16.001 13.934,15.895 14.121,15.707L15.707,14.121C15.895,13.934 16.001,13.679 16.001,13.414C16.001,13.149 15.895,12.894 15.707,12.707L12.437,9.437C12.17,9.17 11.773,9.076 11.414,9.195L10.5,9.5L9.54,8.54L12.22,5.897C12.473,5.964 12.733,5.999 12.995,5.999C14.641,5.999 15.997,4.646 16,3C16,2.731 15.965,2.47 15.898,2.223L13.758,4.364L12,4L11.636,2.243L13.777,0.102C13.523,0.034 13.261,-0.001 12.998,-0.001C11.352,-0.001 9.998,1.353 9.998,2.999C9.998,3.264 10.033,3.527 10.102,3.782L7.462,6.46L4.793,3.793C4.606,3.606 4.5,3.351 4.5,3.086L4.5,3.015C4.5,2.692 4.344,2.389 4.081,2.201L1,0ZM10.646,10.646C10.74,10.552 10.867,10.499 11,10.499C11.133,10.499 11.26,10.552 11.354,10.646L14.268,13.561C14.358,13.654 14.408,13.779 14.408,13.908C14.408,14.183 14.183,14.408 13.908,14.408C13.779,14.408 13.654,14.358 13.561,14.268L10.646,11.354C10.552,11.26 10.499,11.133 10.499,11C10.499,10.867 10.552,10.74 10.646,10.646ZM3,11L3.471,11.242L4,11.268L4.287,11.713L4.732,12L4.758,12.529L5,13L4.758,13.471L4.732,14L4.287,14.287L4,14.732L3.471,14.758L3,15L2.529,14.758L2,14.732L1.713,14.287L1.268,14L1.242,13.471L1,13L1.242,12.529L1.268,12L1.713,11.713L2,11.268L2.529,11.242L3,11Z" style="fill:rgb(50,54,63);fill-rule:nonzero;"/>
</svg>
